<svg xmlns="http://www.w3.org/2000/svg" viewBox="0 0 400 225" width="100%" height="100%">
  <defs>
    <linearGradient id="sky" x1="0" y1="0" x2="0" y2="1">
      <stop offset="0" stop-color="#2c5b7c"/>
      <stop offset="1" stop-color="#0a1520"/>
    </linearGradient>
  </defs>
  <rect width="400" height="225" fill="url(#sky)"/>
  <g fill="#ffffff" opacity="0.55">
    <path d="M40 30 l3 8 8 3 -8 3 -3 8 -3 -8 -8 -3 8 -3 z"/>
    <path d="M360 50 l2.5 6 6 2.5 -6 2.5 -2.5 6 -2.5 -6 -6 -2.5 6 -2.5 z"/>
    <path d="M320 130 l3 8 8 3 -8 3 -3 8 -3 -8 -8 -3 8 -3 z"/>
    <path d="M60 150 l2.5 6 6 2.5 -6 2.5 -2.5 6 -2.5 -6 -6 -2.5 6 -2.5 z"/>
  </g>
  <rect x="70" y="110" width="260" height="90" rx="14" fill="#ffffff" opacity="0.16" stroke="#ffffff" stroke-opacity="0.35"/>
  <circle cx="200" cy="140" r="12" fill="none" stroke="#ffffff" stroke-width="2"/>
  <rect x="150" y="160" width="100" height="9" rx="2" fill="#ffffff"/>
  <rect x="170" y="176" width="60" height="5" rx="2" fill="#ffffff" opacity="0.75"/>
  <rect x="160" y="186" width="80" height="12" rx="6" fill="#1c6ea4"/>
</svg>
