<?xml version="1.0" encoding="UTF-8" standalone="no"?>
<!DOCTYPE svg PUBLIC "-//W3C//DTD SVG 1.1//EN" "http://www.w3.org/Graphics/SVG/1.1/DTD/svg11.dtd">
<svg width="100%" height="100%" viewBox="0 0 1000 1000" version="1.1" xmlns="http://www.w3.org/2000/svg" xmlns:xlink="http://www.w3.org/1999/xlink" xml:space="preserve" xmlns:serif="http://www.serif.com/" style="fill-rule:evenodd;clip-rule:evenodd;stroke-linejoin:round;stroke-miterlimit:2;">
    <g id="Logo" transform="matrix(4.559266,0,0,4.555991,-1053.115034,-1046.612749)">
        <g transform="matrix(0.941124,0,0,0.941124,-7.277679,-6.437177)">
            <circle cx="369.454" cy="367.842" r="30.673" style="fill:rgb(18,115,254);"/>
        </g>
        <g transform="matrix(0.35409,0,0,0.35409,144.938816,145.087307)">
            <circle cx="369.454" cy="367.842" r="30.673" style="fill:rgb(18,115,254);"/>
        </g>
        <g transform="matrix(0.35409,0,0,0.35409,273.890713,274.039203)">
            <circle cx="369.454" cy="367.842" r="30.673" style="fill:rgb(18,115,254);"/>
        </g>
        <g transform="matrix(0.35409,0,0,0.35409,274.424922,145.087307)">
            <circle cx="369.454" cy="367.842" r="30.673" style="fill:rgb(18,115,254);"/>
        </g>
        <g transform="matrix(0.35409,0,0,0.35409,145.473026,274.039203)">
            <circle cx="369.454" cy="367.842" r="30.673" style="fill:rgb(18,115,254);"/>
        </g>
        <g transform="matrix(1.25222,-1.25222,1.148253,1.148253,-421.504103,326.687345)">
            <path d="M304.261,298.961L304.261,306.997C304.261,310.214 301.865,312.827 298.915,312.827C295.964,312.827 293.569,310.214 293.569,306.997L293.569,298.961C293.569,295.743 295.964,293.131 298.915,293.131C301.865,293.131 304.261,295.743 304.261,298.961Z" style="fill:rgb(18,115,254);"/>
        </g>
        <g transform="matrix(1.25222,-1.25222,1.148253,1.148253,-342.432164,405.759285)">
            <path d="M304.261,298.961L304.261,306.997C304.261,310.214 301.865,312.827 298.915,312.827C295.964,312.827 293.569,310.214 293.569,306.997L293.569,298.961C293.569,295.743 295.964,293.131 298.915,293.131C301.865,293.131 304.261,295.743 304.261,298.961Z" style="fill:rgb(18,115,254);"/>
        </g>
        <g transform="matrix(1.25222,1.25222,-1.148253,1.148253,353.894055,-421.926389)">
            <path d="M304.261,298.961L304.261,306.997C304.261,310.214 301.865,312.827 298.915,312.827C295.964,312.827 293.569,310.214 293.569,306.997L293.569,298.961C293.569,295.743 295.964,293.131 298.915,293.131C301.865,293.131 304.261,295.743 304.261,298.961Z" style="fill:rgb(18,115,254);"/>
        </g>
        <g transform="matrix(1.25222,1.25222,-1.148253,1.148253,274.822116,-342.85445)">
            <path d="M304.261,298.961L304.261,306.997C304.261,310.214 301.865,312.827 298.915,312.827C295.964,312.827 293.569,310.214 293.569,306.997L293.569,298.961C293.569,295.743 295.964,293.131 298.915,293.131C301.865,293.131 304.261,295.743 304.261,298.961Z" style="fill:rgb(18,115,254);"/>
        </g>
        <g transform="matrix(1.770906,0,0,3.024946,-188.925532,-646.007191)">
            <path d="M304.261,296.263L304.261,309.695C304.261,311.423 301.865,312.827 298.915,312.827C295.964,312.827 293.569,311.423 293.569,309.695L293.569,296.263C293.569,294.534 295.964,293.131 298.915,293.131C301.865,293.131 304.261,294.534 304.261,296.263Z" style="fill:rgb(18,115,254);"/>
        </g>
        <g transform="matrix(1.770906,0,0,3.024946,-188.925532,-508.044758)">
            <path d="M304.261,296.263L304.261,309.695C304.261,311.423 301.865,312.827 298.915,312.827C295.964,312.827 293.569,311.423 293.569,309.695L293.569,296.263C293.569,294.534 295.964,293.131 298.915,293.131C301.865,293.131 304.261,294.534 304.261,296.263Z" style="fill:rgb(18,115,254);"/>
        </g>
        <g transform="matrix(0,-1.770906,3.024946,0,-644.753886,868.888662)">
            <path d="M304.261,296.258L304.261,309.699C304.261,311.425 301.865,312.827 298.915,312.827C295.964,312.827 293.569,311.425 293.569,309.699L293.569,296.258C293.569,294.532 295.964,293.131 298.915,293.131C301.865,293.131 304.261,294.532 304.261,296.258Z" style="fill:rgb(18,115,254);"/>
        </g>
        <g transform="matrix(0,-1.770906,3.024946,0,-506.933324,868.888662)">
            <path d="M304.261,296.258L304.261,309.699C304.261,311.425 301.865,312.827 298.915,312.827C295.964,312.827 293.569,311.425 293.569,309.699L293.569,296.258C293.569,294.532 295.964,293.131 298.915,293.131C301.865,293.131 304.261,294.532 304.261,296.258Z" style="fill:rgb(18,115,254);"/>
        </g>
    </g>
</svg>
